<svg version="1.1" id="Layer_1" xmlns="http://www.w3.org/2000/svg" xmlns:xlink="http://www.w3.org/1999/xlink" x="0px" y="0px"
	 width="100%" viewBox="0 0 606 330" enable-background="new 0 0 606 330" xml:space="preserve">
<path fill="#000000" opacity="1.000000" stroke="none" 
	d="
M457.000000,331.000000 
	C304.666656,331.000000 152.833328,331.000000 1.000000,331.000000 
	C1.000000,221.000000 1.000000,111.000000 1.000000,1.000000 
	C203.000000,1.000000 405.000000,1.000000 607.000000,1.000000 
	C607.000000,111.000000 607.000000,221.000000 607.000000,331.000000 
	C557.166687,331.000000 507.333344,331.000000 457.000000,331.000000 
M420.265289,322.538513 
	C420.512604,322.030365 420.759918,321.522217 421.805237,321.012756 
	C422.869293,321.009949 423.933380,321.007111 425.542267,321.482727 
	C430.775818,323.822662 441.876129,322.407104 445.752869,318.994354 
	C446.504547,318.985992 447.256195,318.977631 448.723694,319.244537 
	C452.246704,320.279816 455.550659,320.399780 458.676666,317.009460 
	C459.116425,316.999481 459.556213,316.989502 460.727997,317.249237 
	C463.338226,317.208221 466.062622,317.640381 468.538605,317.042938 
	C478.379578,314.668488 488.309570,312.467163 497.883545,309.242462 
	C505.831085,306.565582 513.325684,302.543915 521.659973,298.844543 
	C527.078430,295.729645 533.143433,293.357635 537.768677,289.331451 
	C545.321594,282.756805 554.534546,278.478668 560.550537,269.461029 
	C564.454102,263.609680 569.076111,258.122162 571.602783,251.542953 
	C576.803589,238.000381 579.769226,224.192642 572.185181,210.394852 
	C567.370361,201.635056 560.984375,194.129196 551.251038,191.089142 
	C538.706848,187.171158 525.845398,184.270325 513.123657,180.919617 
	C497.348877,176.764740 481.563141,172.650513 465.808746,168.419525 
	C452.971283,164.971924 441.715027,158.102066 430.298950,151.629745 
	C418.778076,145.097992 407.228485,138.601151 395.943634,131.678009 
	C392.344299,129.469849 388.925537,126.371696 386.573792,122.901634 
	C384.436584,119.748199 381.678772,118.498184 378.695953,116.675339 
	C370.273071,111.528015 362.203979,105.758820 354.284149,99.847923 
	C349.842346,96.532837 346.991333,91.252434 340.916016,89.861839 
	C339.070404,89.439400 337.548706,87.308624 336.028870,85.808136 
	C330.282654,80.135155 324.682648,74.311935 318.868744,68.710129 
	C311.879730,61.976074 304.469086,55.660191 297.745270,48.677631 
	C293.767242,44.546520 290.758301,39.481022 287.323181,34.828609 
	C283.305725,29.387474 280.354248,22.359884 275.065857,18.824100 
	C264.291626,11.620453 251.764954,10.110806 239.421646,18.025427 
	C235.383179,20.614937 231.594269,23.610052 227.796478,26.555382 
	C217.432144,34.593327 206.940018,42.731266 205.606781,57.120670 
	C205.253159,60.937275 203.625763,65.096169 206.977844,69.074471 
	C210.055435,72.727013 209.285049,79.292786 205.930023,81.913445 
	C198.588928,87.647713 191.052826,93.387871 181.407288,94.465736 
	C171.427643,95.580948 161.139816,96.507133 152.562027,89.808548 
	C144.206467,83.283524 138.103912,74.766197 133.347580,65.261894 
	C127.242477,53.062424 118.135941,44.529156 103.789131,44.347519 
	C90.277481,44.176453 82.801384,48.011986 79.198036,60.089733 
	C77.211052,66.749710 76.891212,73.905212 75.791176,80.832779 
	C75.453987,82.956284 75.294693,85.161240 74.586197,87.163383 
	C71.488861,95.916176 67.703064,104.458771 65.130463,113.356194 
	C60.981655,127.704941 55.398766,141.602402 52.952686,156.543579 
	C52.109875,161.691650 52.150486,166.569229 51.958797,171.595383 
	C51.762951,176.730560 51.363792,181.857986 50.958691,186.057602 
	C50.958691,180.575699 50.958691,175.093796 50.958691,169.611893 
	C50.666355,169.612442 50.374023,169.612991 50.081688,169.613541 
	C50.081688,177.346100 50.081688,185.078644 49.816685,193.449600 
	C48.693192,195.854218 47.998703,198.607834 46.374157,200.604843 
	C38.007050,210.890305 34.286835,223.058044 32.343628,235.756638 
	C29.272459,255.826416 40.105736,269.669464 55.049633,280.321960 
	C61.311993,284.785950 69.782005,286.224121 77.334526,288.783661 
	C82.997467,290.702850 89.347153,291.277588 94.360397,294.211853 
	C98.231476,296.477570 101.522522,296.552460 105.516144,296.552979 
	C111.135994,296.553741 117.176651,296.286682 122.221848,298.240265 
	C125.382324,299.464050 127.857071,300.538147 131.388840,300.294403 
	C143.942566,299.428009 156.535934,299.154266 169.105347,298.487732 
	C174.107040,298.222473 179.222717,298.072266 184.041138,296.878967 
	C190.689270,295.232513 197.057419,292.483093 203.652451,290.576050 
	C205.400986,290.070404 207.536743,291.026520 209.503296,291.110809 
	C210.910812,291.171143 212.365662,291.044495 213.740295,290.737061 
	C215.753494,290.286774 217.748993,289.008392 219.690170,289.123779 
	C225.809952,289.487457 231.900909,290.336151 238.358231,291.531708 
	C242.900101,292.652161 247.441956,293.772583 252.509888,294.929138 
	C252.684967,294.944611 252.860046,294.960114 253.352997,295.384827 
	C262.582825,298.217377 271.812622,301.049927 281.523315,303.935120 
	C281.523315,303.935120 282.003113,303.996826 282.322906,304.419250 
	C285.597931,306.442596 288.713013,309.133606 293.655731,306.988831 
	C294.099701,306.996643 294.543701,307.004456 295.253693,307.642242 
	C297.276794,311.181244 300.488495,311.478180 304.508881,310.955170 
	C304.508881,310.955170 304.980499,311.059052 305.251770,311.332275 
	C305.432526,311.509857 305.633698,311.660065 306.564575,311.875610 
	C307.038483,311.928864 307.512390,311.982117 308.570496,312.449982 
	C313.714233,313.304443 318.857971,314.158905 324.666443,315.009186 
	C325.109589,315.007721 325.552765,315.006256 326.476929,315.502747 
	C335.645538,317.532898 344.802399,319.620483 354.001953,321.499054 
	C354.863373,321.674957 355.994263,320.531097 357.833313,320.000305 
	C359.222198,320.000214 360.611115,320.000122 361.840027,320.396271 
	C364.274323,324.575928 367.114960,323.004120 370.863892,320.980438 
	C372.906891,320.987854 374.949860,320.995270 376.705902,321.239166 
	C376.761719,321.818024 376.817566,322.396851 377.456665,323.622437 
	C391.064911,323.738464 404.673065,323.865997 418.281555,323.929688 
	C418.841705,323.932312 419.404633,323.335846 420.265289,322.538513 
M576.976257,230.727341 
	C577.177917,231.390900 577.379578,232.054459 577.581238,232.718033 
	C577.944336,232.666046 578.307495,232.614059 578.670654,232.562073 
	C578.581909,230.568848 578.493164,228.575607 578.371399,225.840881 
	C577.504761,226.815521 577.171936,227.015594 577.144348,227.251312 
	C577.033142,228.204514 577.015930,229.168686 576.976257,230.727341 
z"/>
<path fill="#0B0C0C" opacity="1.000000" stroke="none" 
	d="
M253.035126,294.975616 
	C252.860046,294.960114 252.684967,294.944611 251.975739,294.698029 
	C246.962067,293.310333 242.482544,292.153748 238.003021,290.997162 
	C231.900909,290.336151 225.809952,289.487457 219.690170,289.123779 
	C217.748993,289.008392 215.753494,290.286774 213.740295,290.737061 
	C212.365662,291.044495 210.910812,291.171143 209.503296,291.110809 
	C207.536743,291.026520 205.400986,290.070404 203.652451,290.576050 
	C197.057419,292.483093 190.689270,295.232513 184.041138,296.878967 
	C179.222717,298.072266 174.107040,298.222473 169.105347,298.487732 
	C156.535934,299.154266 143.942566,299.428009 131.388840,300.294403 
	C127.857071,300.538147 125.382324,299.464050 122.221848,298.240265 
	C117.176651,296.286682 111.135994,296.553741 105.516144,296.552979 
	C101.522522,296.552460 98.231476,296.477570 94.360397,294.211853 
	C89.347153,291.277588 82.997467,290.702850 77.334526,288.783661 
	C69.782005,286.224121 61.311993,284.785950 55.049633,280.321960 
	C40.105736,269.669464 29.272459,255.826416 32.343628,235.756638 
	C34.286835,223.058044 38.007050,210.890305 46.374157,200.604843 
	C47.998703,198.607834 48.693192,195.854218 50.182358,192.843430 
	C50.716564,190.487778 50.885098,188.738297 51.053635,186.988815 
	C51.363792,181.857986 51.762951,176.730560 51.958797,171.595383 
	C52.150486,166.569229 52.109875,161.691650 52.952686,156.543579 
	C55.398766,141.602402 60.981655,127.704941 65.130463,113.356194 
	C67.703064,104.458771 71.488861,95.916176 74.586197,87.163383 
	C75.294693,85.161240 75.453987,82.956284 75.791176,80.832779 
	C76.891212,73.905212 77.211052,66.749710 79.198036,60.089733 
	C82.801384,48.011986 90.277481,44.176453 103.789131,44.347519 
	C118.135941,44.529156 127.242477,53.062424 133.347580,65.261894 
	C138.103912,74.766197 144.206467,83.283524 152.562027,89.808548 
	C161.139816,96.507133 171.427643,95.580948 181.407288,94.465736 
	C191.052826,93.387871 198.588928,87.647713 205.930023,81.913445 
	C209.285049,79.292786 210.055435,72.727013 206.977844,69.074471 
	C203.625763,65.096169 205.253159,60.937275 205.606781,57.120670 
	C206.940018,42.731266 217.432144,34.593327 227.796478,26.555382 
	C231.594269,23.610052 235.383179,20.614937 239.421646,18.025427 
	C251.764954,10.110806 264.291626,11.620453 275.065857,18.824100 
	C280.354248,22.359884 283.305725,29.387474 287.323181,34.828609 
	C290.758301,39.481022 293.767242,44.546520 297.745270,48.677631 
	C304.469086,55.660191 311.879730,61.976074 318.868744,68.710129 
	C324.682648,74.311935 330.282654,80.135155 336.028870,85.808136 
	C337.548706,87.308624 339.070404,89.439400 340.916016,89.861839 
	C346.991333,91.252434 349.842346,96.532837 354.284149,99.847923 
	C362.203979,105.758820 370.273071,111.528015 378.695953,116.675339 
	C381.678772,118.498184 384.436584,119.748199 386.573792,122.901634 
	C388.925537,126.371696 392.344299,129.469849 395.943634,131.678009 
	C407.228485,138.601151 418.778076,145.097992 430.298950,151.629745 
	C441.715027,158.102066 452.971283,164.971924 465.808746,168.419525 
	C481.563141,172.650513 497.348877,176.764740 513.123657,180.919617 
	C525.845398,184.270325 538.706848,187.171158 551.251038,191.089142 
	C560.984375,194.129196 567.370361,201.635056 572.185181,210.394852 
	C579.769226,224.192642 576.803589,238.000381 571.602783,251.542953 
	C569.076111,258.122162 564.454102,263.609680 560.550537,269.461029 
	C554.534546,278.478668 545.321594,282.756805 537.768677,289.331451 
	C533.143433,293.357635 527.078430,295.729645 521.041809,298.914307 
	C511.132935,301.742493 501.194824,303.249634 492.740051,307.623779 
	C484.844452,311.708618 476.996582,311.801270 468.840729,312.725220 
	C465.771240,313.072937 462.937286,315.500214 459.995972,316.979492 
	C459.556213,316.989502 459.116425,316.999481 457.934692,317.029724 
	C454.131104,317.689758 451.069489,318.329529 448.007874,318.969299 
	C447.256195,318.977631 446.504547,318.985992 444.953552,319.034729 
	C437.768646,319.718170 431.383026,320.361237 424.997437,321.004272 
	C423.933380,321.007111 422.869293,321.009949 421.079468,320.953308 
	C417.575836,321.540955 414.797913,322.188080 411.643280,322.892700 
	C410.507782,322.925964 409.749054,322.901764 408.733337,322.650970 
	C406.919067,322.004913 405.368042,321.250793 403.803314,321.221283 
	C394.868286,321.052948 385.930023,321.057159 376.992859,321.002686 
	C374.949860,320.995270 372.906891,320.987854 370.056702,320.847229 
	C366.833038,320.476044 364.416504,320.238007 362.000000,320.000000 
	C360.611115,320.000122 359.222198,320.000214 357.036499,319.885040 
	C351.835266,318.189667 347.443176,316.573547 343.017365,315.055786 
	C341.959961,314.693146 340.786041,314.479156 339.672607,314.504150 
	C335.112274,314.606354 330.554565,314.827454 325.995911,315.004761 
	C325.552765,315.006256 325.109589,315.007721 324.068329,314.767517 
	C318.975830,313.352783 314.481445,312.179749 309.857025,311.139221 
	C309.555939,311.447388 309.390533,311.628235 308.919708,311.869995 
	C308.401215,311.962341 308.193756,311.998871 307.986298,312.035370 
	C307.512390,311.982117 307.038483,311.928864 306.059845,311.722290 
	C305.357178,311.406189 305.165619,311.236206 304.980499,311.059052 
	C304.980499,311.059052 304.508881,310.955170 304.134094,310.594604 
	C300.835419,309.160095 297.911530,308.086182 294.987671,307.012268 
	C294.543701,307.004456 294.099701,306.996643 293.013153,306.806152 
	C288.914764,305.747894 285.458923,304.872375 282.003113,303.996826 
	C282.003113,303.996826 281.523315,303.935120 281.225647,303.557617 
	C278.917175,301.080536 277.170837,297.581238 274.846405,297.142120 
	C267.694763,295.791168 260.321960,295.610840 253.035126,294.975616 
M281.420319,232.549561 
	C283.947693,233.698883 286.475067,234.848221 289.500488,236.000076 
	C289.500488,236.000076 289.998505,236.002960 290.000000,236.000000 
	C290.000000,236.000000 289.997192,236.001373 290.575287,236.259415 
	C291.381775,236.503281 292.188232,236.747147 293.498077,236.993103 
	C293.665863,236.994629 293.833649,236.996155 294.494476,237.011658 
	C294.494476,237.011658 294.987732,237.015228 294.992950,237.506622 
	C294.992950,237.506622 294.997833,237.998001 295.486725,238.276718 
	C295.991669,238.524612 296.496582,238.772507 297.525238,239.386734 
	C298.684753,239.923370 299.844269,240.459991 301.798981,241.012192 
	C302.859283,241.032730 303.919556,241.053268 305.410522,241.612976 
	C307.926788,242.399536 310.443024,243.186081 313.560486,244.290268 
	C315.376831,245.210052 317.193176,246.129837 319.583496,247.294708 
	C320.379944,247.536179 321.176361,247.777649 322.391693,248.106491 
	C322.955383,248.066025 323.519073,248.025574 324.545258,247.969940 
	C324.545258,247.969940 325.007996,247.965424 325.638489,248.255447 
	C327.759277,249.177002 329.880035,250.098557 332.594055,251.367203 
	C338.542053,255.375992 345.244476,255.338425 352.493805,255.036377 
	C352.493805,255.036377 352.983124,255.075317 353.400909,255.509338 
	C354.267822,256.005646 355.134705,256.501953 356.803528,257.113129 
	C367.319702,261.030548 374.725128,258.105804 378.848206,247.366516 
	C379.662567,245.245300 381.129639,243.235153 382.716278,241.576050 
	C387.492950,236.581329 391.957642,231.070847 397.482788,227.052200 
	C411.258606,217.032623 427.812653,217.077072 443.860626,215.904114 
	C460.766022,214.668488 477.709625,213.965164 494.624969,212.853592 
	C505.513947,212.138016 515.722961,208.695587 525.617676,204.289230 
	C526.619690,203.843033 527.325500,202.731873 528.149902,201.947220 
	C522.498047,200.162521 517.504822,198.376831 512.399292,197.011032 
	C493.762787,192.025482 475.115509,187.075195 456.420044,182.316940 
	C442.930786,178.883743 431.517578,169.363403 417.021851,168.977188 
	C417.021851,168.977188 416.992126,168.993973 416.138672,169.016785 
	C414.647949,169.163422 413.125031,169.162354 411.671417,169.479172 
	C394.314697,173.262222 377.931671,170.604980 362.336029,162.269287 
	C360.779541,161.437363 358.696045,160.522522 357.169769,160.902359 
	C352.475800,162.070572 347.662750,163.326767 343.407532,165.534698 
	C338.999756,167.821823 335.193878,168.411224 331.569122,164.830002 
	C327.771729,161.078232 328.951172,156.968704 331.343170,152.958755 
	C331.684448,152.386658 331.934448,151.750427 332.331818,151.223083 
	C334.834473,147.901947 333.936615,144.648560 331.254395,142.330475 
	C327.929230,139.456726 324.096130,137.125046 320.288971,134.888550 
	C319.404175,134.368759 316.767609,134.863739 316.583191,135.428925 
	C315.052216,140.120911 310.729889,140.484192 307.138214,141.911591 
	C302.809052,143.632080 298.706421,142.146439 296.412537,138.233856 
	C293.898163,133.945206 294.684875,129.251205 298.021301,126.139435 
	C299.343323,124.906425 300.815247,122.967766 300.812805,121.352531 
	C300.806793,117.395241 291.379791,109.082886 287.870544,108.985954 
	C287.064758,108.963692 286.154510,109.015717 285.458557,109.364876 
	C282.409241,110.894760 279.283051,112.336113 276.441284,114.200592 
	C271.562042,117.401894 261.645325,115.307823 261.663666,110.704353 
	C261.685120,105.314766 261.414856,99.586922 267.085938,96.006348 
	C270.418701,93.902115 270.248871,90.587646 267.408630,88.527092 
	C264.585968,86.479279 261.005219,84.470314 257.667328,84.310089 
	C241.797409,83.548347 228.282272,89.881851 216.028534,99.441200 
	C214.351639,100.749367 212.605652,102.121758 210.666214,102.908989 
	C206.537415,104.584900 202.215805,105.779724 198.053955,107.381493 
	C190.540512,110.273163 182.968094,112.823242 174.752228,111.993202 
	C167.664841,111.277176 160.611649,110.116783 153.510834,109.672707 
	C147.785477,109.314651 143.284531,106.521896 139.056747,103.309593 
	C135.205963,100.383751 131.735657,96.896690 128.405228,93.366806 
	C126.013107,90.831451 124.127380,87.818329 122.001740,85.003029 
	C122.001740,85.003029 121.985840,84.993103 121.777435,84.305588 
	C119.857819,80.242928 118.351433,75.906647 115.896118,72.198708 
	C113.678749,68.850098 110.786324,65.688904 107.544617,63.336704 
	C102.172165,59.438431 95.685699,63.458263 94.219368,70.913177 
	C92.394737,80.189697 90.448326,89.448387 88.251038,98.642242 
	C87.455833,101.969475 88.360550,103.740845 91.099815,105.671516 
	C101.528366,113.021713 112.186607,120.144348 121.946419,128.321838 
	C136.393524,140.426682 151.836334,149.877396 171.311264,149.192734 
	C181.380859,148.838730 191.605637,147.595901 201.379974,145.201859 
	C224.898300,139.441483 246.590958,144.459778 267.514679,154.861145 
	C271.858246,157.020401 275.421356,160.747757 279.348969,163.746170 
	C287.498901,169.967987 295.773499,176.033920 303.774658,182.441422 
	C315.025543,191.451385 325.862122,201.024445 339.168762,207.055740 
	C344.326385,209.393448 349.509155,211.678940 354.721008,213.892700 
	C357.993652,215.282761 360.478912,217.792114 359.478943,221.116486 
	C358.688629,223.743683 356.274017,226.597855 353.821198,227.795364 
	C351.644257,228.858185 348.063843,228.573288 345.720825,227.515121 
	C332.856812,221.705505 319.932251,215.936935 307.539368,209.212723 
	C300.321381,205.296387 294.028503,199.659637 287.374817,194.722275 
	C277.323975,187.264053 266.829803,180.302917 257.436005,172.087708 
	C247.921295,163.766785 236.997421,159.927048 225.000778,160.259491 
	C213.599808,160.575409 202.196533,162.552200 190.896530,164.418076 
	C164.366028,168.798859 139.947403,164.187561 117.952240,148.329865 
	C115.798706,146.777237 113.780457,145.038361 111.666916,143.428619 
	C105.534958,138.758301 99.385742,134.110626 93.249702,129.445679 
	C93.128975,129.353897 93.086479,129.159241 93.021530,128.978470 
	C93.021530,128.978470 92.988174,128.992233 92.544365,128.480286 
	C85.255020,121.966042 79.378838,125.747536 77.070381,132.103638 
	C71.078674,148.601212 68.444771,165.527084 68.688568,183.467468 
	C67.035118,187.242523 69.069496,187.542267 72.363327,187.302933 
	C72.598228,187.513870 72.828690,187.729523 73.320374,188.516144 
	C74.984276,191.357727 76.836617,191.998352 79.565712,189.234818 
	C80.373878,189.835556 81.182045,190.436295 82.367729,191.582611 
	C85.583809,193.382629 88.799881,195.182648 92.814178,196.994995 
	C93.878555,196.996613 94.942932,196.998230 96.344002,197.324326 
	C96.567467,197.541611 96.789963,197.759888 97.613228,198.334732 
	C102.076263,200.228775 106.539299,202.122818 111.499092,204.278946 
	C112.010933,204.511414 112.522766,204.743896 113.690086,204.986237 
	C114.127075,204.993240 114.564056,205.000259 115.678940,205.315903 
	C121.122971,206.542694 126.567001,207.769485 132.842896,208.998367 
	C134.229370,209.005890 135.615829,209.013428 137.684723,209.273758 
	C139.127396,209.514526 140.570068,209.755295 142.768280,209.998016 
	C143.525757,210.001953 144.283249,210.005890 145.829529,210.248795 
	C153.213364,210.185287 160.597214,210.121796 168.856659,210.045273 
	C170.898804,210.025101 172.940933,210.004929 175.783157,209.982101 
	C177.850922,209.356476 179.918701,208.730850 182.785431,208.006927 
	C183.857880,208.006149 184.930313,208.005371 186.651016,208.245087 
	C188.433914,208.163620 190.216812,208.082138 192.835022,207.939835 
	C194.228226,207.997955 195.621445,208.056061 197.469955,208.542618 
	C199.304871,208.447388 201.139801,208.352158 203.678131,208.198044 
	C204.143433,208.134781 204.608734,208.071503 204.990204,208.016312 
	C204.990204,208.016312 204.936371,207.951553 205.304306,208.377396 
	C205.822983,208.572540 206.341644,208.767685 207.422882,209.036057 
	C207.610611,209.058884 207.798325,209.081711 208.481583,209.551498 
	C209.985840,210.036255 211.490082,210.521011 213.499252,211.018707 
	C213.667572,211.022537 213.835876,211.026382 214.645859,211.277542 
	C215.768707,211.512207 216.891571,211.746887 218.675034,211.993454 
	C219.115372,212.004623 219.555725,212.015793 220.329102,212.386124 
	C221.222641,212.581345 222.116180,212.776550 223.505356,212.991943 
	C223.505356,212.991943 224.000900,213.014374 224.641403,213.266602 
	C225.762070,213.509796 226.882736,213.752991 228.674088,214.162811 
	C229.789017,214.452133 230.903946,214.741470 232.665436,215.327499 
	C234.777878,215.883942 236.890320,216.440384 239.712433,217.168533 
	C241.146484,217.449387 242.580551,217.730240 244.498993,218.012009 
	C244.498993,218.012009 244.983383,218.011826 245.482361,218.057846 
	C245.648956,218.070038 245.815552,218.082214 246.397858,218.527054 
	C247.264343,219.018814 248.130829,219.510590 249.499329,219.999573 
	C249.666656,219.998276 249.834000,219.996964 250.000000,220.000000 
	C250.000000,220.000000 250.004242,219.998596 250.021912,220.473862 
	C250.021912,220.473862 250.041214,220.949066 250.446060,221.371140 
	C253.300049,222.244736 256.154053,223.118317 259.671082,223.995224 
	C260.113098,223.995392 260.555084,223.995544 261.497803,223.997528 
	C261.664673,223.998810 261.831573,224.000092 262.619232,224.260681 
	C264.415680,225.176315 266.212097,226.091949 268.499176,227.007904 
	C268.499176,227.007904 268.989807,227.008591 269.484192,227.046951 
	C269.484192,227.046951 269.979309,227.074722 270.382935,227.607391 
	C273.912628,229.077225 277.442352,230.547058 280.987915,232.023270 
	C280.987915,232.023270 280.992004,232.040207 281.420319,232.549561 
M437.208282,281.724884 
	C430.469574,281.819244 423.730835,281.913605 416.188202,282.127838 
	C414.834290,282.144714 413.480408,282.161591 411.519470,281.691010 
	C404.996704,280.822723 398.494812,279.728058 391.947632,279.124451 
	C359.981110,276.177338 328.835266,269.535858 298.760925,258.267914 
	C280.509277,251.429581 262.617706,243.596344 244.233078,237.155807 
	C224.043518,230.082932 203.210281,225.703247 181.577133,227.124100 
	C179.696381,227.247620 177.873978,228.259659 175.251251,228.985748 
	C174.208664,229.048416 173.166092,229.111084 171.341049,228.857651 
	C168.221191,228.577927 165.103287,228.274185 161.981155,228.022659 
	C148.955154,226.973236 135.926743,225.953629 122.902069,224.888275 
	C120.263969,224.672485 117.638206,224.305664 115.000000,224.000153 
	C115.000000,224.000153 114.991959,223.993637 114.366486,223.644836 
	C100.998199,218.151245 87.552788,212.835510 74.294899,207.087296 
	C67.882133,204.306915 65.351234,204.924774 61.942360,211.229233 
	C60.227577,214.400589 58.475029,217.721191 56.025944,220.295364 
	C47.163834,229.610153 46.376320,246.087997 55.225796,255.430389 
	C58.939709,259.351196 63.487682,262.726532 68.187988,265.423523 
	C83.626450,274.281921 100.706017,277.999786 118.182571,279.875397 
	C124.386856,280.541321 130.718735,280.018311 137.911606,279.939301 
	C141.618835,280.014130 145.326050,280.088959 149.406494,280.531738 
	C150.594040,280.401215 151.781601,280.270691 153.824036,280.005066 
	C155.552063,280.012665 157.280075,280.020233 159.754333,280.277893 
	C160.397110,280.431641 161.085724,280.819885 161.675873,280.704498 
	C173.480682,278.396271 185.281982,276.068115 197.061523,273.635101 
	C198.859985,273.263672 200.509033,271.923889 202.292282,271.765686 
	C210.515945,271.035919 218.762650,270.565857 227.000000,270.000000 
	C227.000000,270.000000 226.996216,269.996338 227.694168,270.265076 
	C232.284622,271.019989 237.013382,271.305878 241.441406,272.611633 
	C259.808411,278.027771 278.129059,283.611511 296.384033,289.394714 
	C326.119537,298.814880 356.541962,304.626678 387.711853,304.783020 
	C407.311798,304.881317 426.998077,303.612732 446.507996,301.613892 
	C468.628998,299.347534 490.118500,293.797272 510.415344,284.361206 
	C515.196106,282.138641 519.911438,279.720032 524.441772,277.029449 
	C529.003479,274.320251 533.411194,271.309021 537.623962,268.086945 
	C538.608765,267.333740 538.534363,265.195709 538.947327,263.694824 
	C537.579407,263.449005 536.136902,262.805389 534.859863,263.044708 
	C532.590210,263.470093 530.393555,264.358002 528.213684,265.178253 
	C506.987213,273.165588 484.854614,276.787933 462.416809,279.082062 
	C455.202087,279.819763 448.047241,281.143188 440.143250,282.171326 
	C439.424896,282.108704 438.706543,282.046112 437.208282,281.724884 
M403.606995,263.998352 
	C409.423767,264.325104 415.242157,264.957611 421.057037,264.926575 
	C448.600983,264.779633 475.983093,262.772217 502.922729,256.666290 
	C518.710815,253.087860 534.334961,248.876755 548.508728,240.718735 
	C557.160767,235.738846 559.880249,228.565201 556.801758,220.203796 
	C554.705017,214.508942 550.563477,213.049301 544.979004,215.176407 
	C535.681519,218.717789 526.401672,222.632523 516.762939,224.887787 
	C490.860443,230.948456 464.372803,232.624100 437.869812,232.900635 
	C419.826263,233.088913 405.438416,239.123032 395.519226,254.613708 
	C392.618134,259.144318 394.322418,263.181732 399.682373,263.886505 
	C400.668640,264.016174 401.678925,263.963318 403.606995,263.998352 
M272.416748,45.789017 
	C270.196228,42.479073 268.510010,38.547619 265.596863,36.043400 
	C262.966827,33.782558 258.385956,31.212334 255.738388,32.074299 
	C249.772598,34.016602 244.305710,37.746960 238.964706,41.251034 
	C236.039505,43.170151 233.765793,46.091225 231.229507,48.592129 
	C226.998596,52.764000 223.281525,57.139282 224.131653,63.752602 
	C224.955124,70.158569 229.339554,72.812447 235.317703,70.525337 
	C248.173752,65.606895 260.974426,65.311615 273.527008,71.527016 
	C276.639099,73.067963 279.532837,75.050461 282.524231,76.834526 
	C286.217010,79.036865 290.903839,77.580826 292.836151,73.162109 
	C294.422607,69.534393 290.936554,68.562187 288.823792,66.937645 
	C287.606384,66.001564 286.375397,64.992989 285.446198,63.788841 
	C282.430084,59.880157 279.539093,55.874458 276.623291,51.889030 
	C275.296021,50.074879 274.023621,48.220623 272.416748,45.789017 
M337.686279,124.213333 
	C341.524872,126.750534 345.102783,130.029877 349.313080,131.509003 
	C351.389954,132.238632 354.766327,129.854431 357.213135,128.330719 
	C357.591309,128.095215 356.677734,124.215996 355.415283,123.213684 
	C351.821167,120.360138 347.803162,118.007957 343.796570,115.732002 
	C342.922760,115.235626 341.182434,115.508080 340.227173,116.075874 
	C338.468933,117.120926 336.997192,118.647972 335.138214,120.197380 
	C335.822113,121.280891 336.586182,122.491447 337.686279,124.213333 
M392.003357,153.958496 
	C394.993683,151.883484 393.396423,149.905365 391.617554,148.346176 
	C389.518311,146.506210 387.024475,145.125153 384.823303,143.390839 
	C380.984009,140.365860 377.450500,140.725922 373.631866,143.612427 
	C370.668121,145.852722 370.675995,147.763031 373.989685,148.918198 
	C379.685883,150.903885 385.563293,152.369888 392.003357,153.958496 
M320.875488,104.529594 
	C323.674957,102.551834 323.202362,100.280342 321.077240,98.324623 
	C318.169556,95.648720 315.207367,92.909927 311.841187,90.921577 
	C310.684540,90.238365 307.712006,91.208443 306.559875,92.389656 
	C305.643341,93.329330 305.584961,96.090179 306.301636,97.418976 
	C307.520294,99.678421 309.448547,101.685013 311.444244,103.362930 
	C313.989807,105.503113 316.860779,107.439415 320.875488,104.529594 
M102.018280,295.489349 
	C102.018280,295.489349 101.992401,295.512604 102.018280,295.489349 
M541.482910,261.514191 
	C541.482910,261.514191 541.514832,261.509521 541.482910,261.514191 
M520.480774,207.487656 
	C520.480774,207.487656 520.488464,207.520645 520.480774,207.487656 
M395.484680,151.478928 
	C395.484680,151.478928 395.490021,151.511765 395.484680,151.478928 
z"/>
<path fill="#070707" opacity="1.000000" stroke="none" 
	d="
M460.362000,317.114380 
	C462.937286,315.500214 465.771240,313.072937 468.840729,312.725220 
	C476.996582,311.801270 484.844452,311.708618 492.740051,307.623779 
	C501.194824,303.249634 511.132935,301.742493 520.722290,299.051025 
	C513.325684,302.543915 505.831085,306.565582 497.883545,309.242462 
	C488.309570,312.467163 478.379578,314.668488 468.538605,317.042938 
	C466.062622,317.640381 463.338226,317.208221 460.362000,317.114380 
z"/>
<path fill="#070707" opacity="1.000000" stroke="none" 
	d="
M326.236420,315.253754 
	C330.554565,314.827454 335.112274,314.606354 339.672607,314.504150 
	C340.786041,314.479156 341.959961,314.693146 343.017365,315.055786 
	C347.443176,316.573547 351.835266,318.189667 356.619843,319.884888 
	C355.994263,320.531097 354.863373,321.674957 354.001953,321.499054 
	C344.802399,319.620483 335.645538,317.532898 326.236420,315.253754 
z"/>
<path fill="#070707" opacity="1.000000" stroke="none" 
	d="
M253.194061,295.180237 
	C260.321960,295.610840 267.694763,295.791168 274.846405,297.142120 
	C277.170837,297.581238 278.917175,301.080536 280.985199,303.531311 
	C271.812622,301.049927 262.582825,298.217377 253.194061,295.180237 
z"/>
<path fill="#070707" opacity="1.000000" stroke="none" 
	d="
M376.849365,321.120941 
	C385.930023,321.057159 394.868286,321.052948 403.803314,321.221283 
	C405.368042,321.250793 406.919067,322.004913 408.266174,322.682343 
	C397.661743,322.952118 387.267578,322.963898 376.873413,322.975708 
	C376.817566,322.396851 376.761719,321.818024 376.849365,321.120941 
z"/>
<path fill="#070707" opacity="1.000000" stroke="none" 
	d="
M425.269836,321.243500 
	C431.383026,320.361237 437.768646,319.718170 444.577698,319.038147 
	C441.876129,322.407104 430.775818,323.822662 425.269836,321.243500 
z"/>
<path fill="#4D4E4D" opacity="1.000000" stroke="none" 
	d="
M377.165039,323.299072 
	C387.267578,322.963898 397.661743,322.952118 408.523102,322.908936 
	C409.749054,322.901764 410.507782,322.925964 412.083740,322.925659 
	C415.256012,322.940247 417.611145,322.979370 419.966248,323.018494 
	C419.404633,323.335846 418.841705,323.932312 418.281555,323.929688 
	C404.673065,323.865997 391.064911,323.738464 377.165039,323.299072 
z"/>
<path fill="#070707" opacity="1.000000" stroke="none" 
	d="
M309.987061,311.006714 
	C314.481445,312.179749 318.975830,313.352783 323.735962,314.769592 
	C318.857971,314.158905 313.714233,313.304443 308.278381,312.242676 
	C308.193756,311.998871 308.401215,311.962341 309.043945,311.737091 
	C309.648560,311.367920 309.817841,311.187347 309.987061,311.006714 
z"/>
<path fill="#070707" opacity="1.000000" stroke="none" 
	d="
M295.120667,307.327240 
	C297.911530,308.086182 300.835419,309.160095 303.897186,310.547852 
	C300.488495,311.478180 297.276794,311.181244 295.120667,307.327240 
z"/>
<path fill="#4D4E4D" opacity="1.000000" stroke="none" 
	d="
M51.006165,186.523209 
	C50.885098,188.738297 50.716564,190.487778 50.314857,192.524231 
	C50.081688,185.078644 50.081688,177.346100 50.081688,169.613541 
	C50.374023,169.612991 50.666355,169.612442 50.958691,169.611893 
	C50.958691,175.093796 50.958691,180.575699 51.006165,186.523209 
z"/>
<path fill="#070707" opacity="1.000000" stroke="none" 
	d="
M238.180634,291.264435 
	C242.482544,292.153748 246.962067,293.310333 251.712708,294.679993 
	C247.441956,293.772583 242.900101,292.652161 238.180634,291.264435 
z"/>
<path fill="#070707" opacity="1.000000" stroke="none" 
	d="
M282.163025,304.208038 
	C285.458923,304.872375 288.914764,305.747894 292.680237,306.798767 
	C288.713013,309.133606 285.597931,306.442596 282.163025,304.208038 
z"/>
<path fill="#070707" opacity="1.000000" stroke="none" 
	d="
M361.920013,320.198120 
	C364.416504,320.238007 366.833038,320.476044 369.618835,320.843018 
	C367.114960,323.004120 364.274323,324.575928 361.920013,320.198120 
z"/>
<path fill="#070707" opacity="1.000000" stroke="none" 
	d="
M448.365784,319.106934 
	C451.069489,318.329529 454.131104,317.689758 457.604858,317.035095 
	C455.550659,320.399780 452.246704,320.279816 448.365784,319.106934 
z"/>
<path fill="#070707" opacity="1.000000" stroke="none" 
	d="
M420.115784,322.778503 
	C417.611145,322.979370 415.256012,322.940247 412.460449,322.868164 
	C414.797913,322.188080 417.575836,321.540955 420.680481,320.953979 
	C420.759918,321.522217 420.512604,322.030365 420.115784,322.778503 
z"/>
<path fill="#0B0C0C" opacity="1.000000" stroke="none" 
	d="
M576.970093,230.428070 
	C577.015930,229.168686 577.033142,228.204514 577.144348,227.251312 
	C577.171936,227.015594 577.504761,226.815521 578.371399,225.840881 
	C578.493164,228.575607 578.581909,230.568848 578.670654,232.562073 
	C578.307495,232.614059 577.944336,232.666046 577.581238,232.718033 
	C577.379578,232.054459 577.177917,231.390900 576.970093,230.428070 
z"/>
<path fill="#070707" opacity="1.000000" stroke="none" 
	d="
M305.116150,311.195679 
	C305.165619,311.236206 305.357178,311.406189 305.705200,311.675934 
	C305.633698,311.660065 305.432526,311.509857 305.116150,311.195679 
z"/>
<path fill="#000000" opacity="1.000000" stroke="none" 
	d="
M352.983124,255.075317 
	C352.983124,255.075317 352.493805,255.036377 351.905334,254.863068 
	C344.878204,253.466537 338.439514,252.243332 332.000824,251.020111 
	C329.880035,250.098557 327.759277,249.177002 325.206543,248.087769 
	C324.539154,247.888550 324.308533,247.910217 324.082764,247.985107 
	C323.519073,248.025574 322.955383,248.066025 322.025574,247.882675 
	C320.776154,247.455780 319.892853,247.252701 319.009521,247.049622 
	C317.193176,246.129837 315.376831,245.210052 312.968109,243.948883 
	C309.910431,242.762924 307.445160,241.918365 304.979858,241.073807 
	C303.919556,241.053268 302.859283,241.032730 301.245697,240.768188 
	C299.462128,240.022919 298.231812,239.521652 297.001526,239.020401 
	C296.496582,238.772507 295.991669,238.524612 295.258728,238.014709 
	C295.049866,237.505142 295.035522,237.259308 294.987732,237.015228 
	C294.987732,237.015228 294.494476,237.011658 294.122803,236.984589 
	C293.497620,236.932007 293.245483,236.943176 292.994720,236.991013 
	C292.188232,236.747147 291.381775,236.503281 290.303436,236.119934 
	C290.031586,235.980469 289.998505,236.002960 289.998505,236.002960 
	C289.998505,236.002960 289.500488,236.000076 289.042603,235.736420 
	C286.053802,234.328568 283.522888,233.184387 280.992004,232.040207 
	C280.992004,232.040207 280.987915,232.023270 280.710083,231.808472 
	C276.947937,230.087341 273.463623,228.581024 269.979309,227.074722 
	C269.979309,227.074722 269.484192,227.046951 269.114899,227.009811 
	C268.498535,226.950500 268.252838,226.962128 268.008545,227.007568 
	C266.212097,226.091949 264.415680,225.176315 262.184387,224.111359 
	C261.497345,223.937164 261.246521,223.948395 260.997101,223.995697 
	C260.555084,223.995544 260.113098,223.995392 259.149841,223.727509 
	C255.766113,222.622879 252.903671,221.785965 250.041214,220.949066 
	C250.041214,220.949066 250.021912,220.473862 250.030304,220.225342 
	C250.038712,219.976822 250.001358,219.995667 250.001358,219.995667 
	C249.834000,219.996964 249.666656,219.998276 249.048706,219.770325 
	C247.726120,219.058853 246.854126,218.576630 245.982147,218.094406 
	C245.815552,218.082214 245.648956,218.070038 245.112335,218.018188 
	C244.498535,217.958054 244.255966,217.968903 244.014603,218.011108 
	C242.580551,217.730240 241.146484,217.449387 239.128220,216.835083 
	C236.378082,215.651138 234.212173,214.800629 232.023590,213.941284 
	C232.000946,213.932434 231.948349,214.047577 231.966125,214.293365 
	C231.983917,214.539169 232.018875,215.030792 232.018875,215.030792 
	C230.903946,214.741470 229.789017,214.452133 228.148865,213.881516 
	C226.416061,213.404938 225.208481,213.209656 224.000900,213.014374 
	C224.000900,213.014374 223.505356,212.991943 223.090546,212.801727 
	C221.782516,212.416641 220.889282,212.221802 219.996063,212.026947 
	C219.555725,212.015793 219.115372,212.004623 218.152588,211.792236 
	C216.421494,211.404083 215.212845,211.217163 214.004196,211.030228 
	C213.835876,211.026382 213.667572,211.022537 213.007751,210.770691 
	C211.006180,210.049957 209.496109,209.577255 207.986038,209.104553 
	C207.798325,209.081711 207.610611,209.058884 207.028076,208.726868 
	C206.067627,208.262314 205.501999,208.106934 204.936371,207.951553 
	C204.936371,207.951553 204.990204,208.016312 204.716095,207.722290 
	C194.149231,207.428284 183.856491,207.428284 173.563751,207.428284 
	C173.563034,207.598282 173.562317,207.768280 173.561600,207.938278 
	C174.031281,208.058533 174.500946,208.178772 174.971817,208.580078 
	C174.976364,209.235672 174.979721,209.610214 174.983063,209.984756 
	C172.940933,210.004929 170.898804,210.025101 168.033569,209.910538 
	C157.141098,209.524185 147.071701,209.272568 137.002304,209.020935 
	C135.615829,209.013428 134.229370,209.005890 132.565887,208.863876 
	C132.375580,208.297745 132.462296,207.866089 132.549011,207.434448 
	C126.699692,206.625397 120.850365,205.816330 115.001045,205.007263 
	C114.564056,205.000259 114.127075,204.993240 113.331482,204.809143 
	C112.316025,204.426971 111.659180,204.221924 111.002335,204.016861 
	C106.539299,202.122818 102.076263,200.228775 97.155563,197.983246 
	C96.481529,197.405991 96.251335,197.195358 96.007309,196.999847 
	C94.942932,196.998230 93.878555,196.996613 92.224617,196.714493 
	C88.420105,194.635010 85.205162,192.836014 81.990219,191.037018 
	C81.182045,190.436295 80.373878,189.835556 79.033951,188.976990 
	C77.982193,188.478912 77.462181,188.238678 76.829254,187.981277 
	C76.487572,187.941696 76.259216,187.946960 75.784355,188.011566 
	C74.709862,188.012131 73.882286,187.981018 73.054718,187.949921 
	C72.828690,187.729523 72.598228,187.513870 72.164116,186.807159 
	C71.414864,181.975632 71.414864,181.975632 68.991959,183.010040 
	C68.444771,165.527084 71.078674,148.601212 77.070381,132.103638 
	C79.378838,125.747536 85.255020,121.966042 92.772491,128.739929 
	C93.000626,128.999557 93.007484,129.012573 93.007484,129.012573 
	C93.086479,129.159241 93.128975,129.353897 93.249702,129.445679 
	C99.385742,134.110626 105.534958,138.758301 111.666916,143.428619 
	C113.780457,145.038361 115.798706,146.777237 117.952240,148.329865 
	C139.947403,164.187561 164.366028,168.798859 190.896530,164.418076 
	C202.196533,162.552200 213.599808,160.575409 225.000778,160.259491 
	C236.997421,159.927048 247.921295,163.766785 257.436005,172.087708 
	C266.829803,180.302917 277.323975,187.264053 287.374817,194.722275 
	C294.028503,199.659637 300.321381,205.296387 307.539368,209.212723 
	C319.932251,215.936935 332.856812,221.705505 345.720825,227.515121 
	C348.063843,228.573288 351.644257,228.858185 353.821198,227.795364 
	C356.274017,226.597855 358.688629,223.743683 359.478943,221.116486 
	C360.478912,217.792114 357.993652,215.282761 354.721008,213.892700 
	C349.509155,211.678940 344.326385,209.393448 339.168762,207.055740 
	C325.862122,201.024445 315.025543,191.451385 303.774658,182.441422 
	C295.773499,176.033920 287.498901,169.967987 279.348969,163.746170 
	C275.421356,160.747757 271.858246,157.020401 267.514679,154.861145 
	C246.590958,144.459778 224.898300,139.441483 201.379974,145.201859 
	C191.605637,147.595901 181.380859,148.838730 171.311264,149.192734 
	C151.836334,149.877396 136.393524,140.426682 121.946419,128.321838 
	C112.186607,120.144348 101.528366,113.021713 91.099815,105.671516 
	C88.360550,103.740845 87.455833,101.969475 88.251038,98.642242 
	C90.448326,89.448387 92.394737,80.189697 94.219368,70.913177 
	C95.685699,63.458263 102.172165,59.438431 107.544617,63.336704 
	C110.786324,65.688904 113.678749,68.850098 115.896118,72.198708 
	C118.351433,75.906647 119.857819,80.242928 121.845840,84.692909 
	C121.914238,85.080231 121.902946,85.266808 121.902946,85.266808 
	C121.902946,85.266808 122.015755,85.018333 122.015755,85.018333 
	C124.127380,87.818329 126.013107,90.831451 128.405228,93.366806 
	C131.735657,96.896690 135.205963,100.383751 139.056747,103.309593 
	C143.284531,106.521896 147.785477,109.314651 153.510834,109.672707 
	C160.611649,110.116783 167.664841,111.277176 174.752228,111.993202 
	C182.968094,112.823242 190.540512,110.273163 198.053955,107.381493 
	C202.215805,105.779724 206.537415,104.584900 210.666214,102.908989 
	C212.605652,102.121758 214.351639,100.749367 216.028534,99.441200 
	C228.282272,89.881851 241.797409,83.548347 257.667328,84.310089 
	C261.005219,84.470314 264.585968,86.479279 267.408630,88.527092 
	C270.248871,90.587646 270.418701,93.902115 267.085938,96.006348 
	C261.414856,99.586922 261.685120,105.314766 261.663666,110.704353 
	C261.645325,115.307823 271.562042,117.401894 276.441284,114.200592 
	C279.283051,112.336113 282.409241,110.894760 285.458557,109.364876 
	C286.154510,109.015717 287.064758,108.963692 287.870544,108.985954 
	C291.379791,109.082886 300.806793,117.395241 300.812805,121.352531 
	C300.815247,122.967766 299.343323,124.906425 298.021301,126.139435 
	C294.684875,129.251205 293.898163,133.945206 296.412537,138.233856 
	C298.706421,142.146439 302.809052,143.632080 307.138214,141.911591 
	C310.729889,140.484192 315.052216,140.120911 316.583191,135.428925 
	C316.767609,134.863739 319.404175,134.368759 320.288971,134.888550 
	C324.096130,137.125046 327.929230,139.456726 331.254395,142.330475 
	C333.936615,144.648560 334.834473,147.901947 332.331818,151.223083 
	C331.934448,151.750427 331.684448,152.386658 331.343170,152.958755 
	C328.951172,156.968704 327.771729,161.078232 331.569122,164.830002 
	C335.193878,168.411224 338.999756,167.821823 343.407532,165.534698 
	C347.662750,163.326767 352.475800,162.070572 357.169769,160.902359 
	C358.696045,160.522522 360.779541,161.437363 362.336029,162.269287 
	C377.931671,170.604980 394.314697,173.262222 411.671417,169.479172 
	C413.125031,169.162354 414.647949,169.163422 416.569611,169.008469 
	C417.000549,169.000153 417.006409,169.009689 417.006409,169.009689 
	C431.517578,169.363403 442.930786,178.883743 456.420044,182.316940 
	C475.115509,187.075195 493.762787,192.025482 512.399292,197.011032 
	C517.504822,198.376831 522.498047,200.162521 528.149902,201.947220 
	C527.325500,202.731873 526.619690,203.843033 525.617676,204.289230 
	C515.722961,208.695587 505.513947,212.138016 494.624969,212.853592 
	C477.709625,213.965164 460.766022,214.668488 443.860626,215.904114 
	C427.812653,217.077072 411.258606,217.032623 397.482788,227.052200 
	C391.957642,231.070847 387.492950,236.581329 382.716278,241.576050 
	C381.129639,243.235153 379.662567,245.245300 378.848206,247.366516 
	C374.725128,258.105804 367.319702,261.030548 356.196228,256.832092 
	C354.720306,256.059143 353.851715,255.567230 352.983124,255.075317 
M429.969543,215.444702 
	C431.940186,215.661026 433.910858,215.877365 435.881500,216.093689 
	C435.892181,215.784195 435.902863,215.474716 435.913544,215.165222 
	C434.013367,215.165222 432.113220,215.165222 429.969543,215.444702 
M159.045349,112.545700 
	C159.045349,112.545700 158.991409,112.541473 159.045349,112.545700 
M170.001694,208.532196 
	C170.001694,208.532196 169.986618,208.480835 170.001694,208.532196 
z"/>
<path fill="#010101" opacity="1.000000" stroke="none" 
	d="
M176.024475,228.858978 
	C177.873978,228.259659 179.696381,227.247620 181.577133,227.124100 
	C203.210281,225.703247 224.043518,230.082932 244.233078,237.155807 
	C262.617706,243.596344 280.509277,251.429581 298.760925,258.267914 
	C328.835266,269.535858 359.981110,276.177338 391.947632,279.124451 
	C398.494812,279.728058 404.996704,280.822723 412.160156,282.161011 
	C422.155579,282.486877 431.510284,282.342743 440.865021,282.198639 
	C448.047241,281.143188 455.202087,279.819763 462.416809,279.082062 
	C484.854614,276.787933 506.987213,273.165588 528.213684,265.178253 
	C530.393555,264.358002 532.590210,263.470093 534.859863,263.044708 
	C536.136902,262.805389 537.579407,263.449005 538.947327,263.694824 
	C538.534363,265.195709 538.608765,267.333740 537.623962,268.086945 
	C533.411194,271.309021 529.003479,274.320251 524.441772,277.029449 
	C519.911438,279.720032 515.196106,282.138641 510.415344,284.361206 
	C490.118500,293.797272 468.628998,299.347534 446.507996,301.613892 
	C426.998077,303.612732 407.311798,304.881317 387.711853,304.783020 
	C356.541962,304.626678 326.119537,298.814880 296.384033,289.394714 
	C278.129059,283.611511 259.808411,278.027771 241.441406,272.611633 
	C237.013382,271.305878 232.284622,271.019989 227.535690,270.122833 
	C227.761978,269.894073 228.146744,269.807526 228.531509,269.721008 
	C228.488327,269.607269 228.445129,269.493561 228.401947,269.379852 
	C227.934998,269.587463 227.468048,269.795074 227.001083,270.002686 
	C218.762650,270.565857 210.515945,271.035919 202.292282,271.765686 
	C200.509033,271.923889 198.859985,273.263672 197.061523,273.635101 
	C185.281982,276.068115 173.480682,278.396271 161.675873,280.704498 
	C161.085724,280.819885 160.397110,280.431641 159.522476,280.032166 
	C159.290619,279.786438 159.532104,279.504059 159.646683,279.331665 
	C159.681641,278.913818 159.602020,278.668335 159.522400,278.422852 
	C159.342804,278.608612 159.163239,278.794403 158.516663,279.007263 
	C149.442871,279.034363 140.836044,279.034363 132.229233,279.034363 
	C132.238586,279.168091 132.247940,279.301819 132.257294,279.435547 
	C133.835648,279.636383 135.414017,279.837219 136.992371,280.038055 
	C130.718735,280.018311 124.386856,280.541321 118.182571,279.875397 
	C100.706017,277.999786 83.626450,274.281921 68.187988,265.423523 
	C63.487682,262.726532 58.939709,259.351196 55.225796,255.430389 
	C46.376320,246.087997 47.163834,229.610153 56.025944,220.295364 
	C58.475029,217.721191 60.227577,214.400589 61.942360,211.229233 
	C65.351234,204.924774 67.882133,204.306915 74.294899,207.087296 
	C87.552788,212.835510 100.998199,218.151245 114.578835,223.867859 
	C114.863045,224.063431 114.934898,224.035950 115.006760,224.008484 
	C117.638206,224.305664 120.263969,224.672485 122.902069,224.888275 
	C135.926743,225.953629 148.955154,226.973236 161.981155,228.022659 
	C165.103287,228.274185 168.221191,228.577927 172.063324,229.254700 
	C181.915833,229.651733 191.046082,229.651733 200.176331,229.651733 
	C200.177139,229.387482 200.177948,229.123230 200.178757,228.858978 
	C192.127335,228.858978 184.075897,228.858978 176.024475,228.858978 
M391.849426,281.340820 
	C391.160400,280.901215 390.471344,280.461609 389.782318,280.022003 
	C389.644073,280.378998 389.505859,280.735962 389.367615,281.092957 
	C390.085052,281.226624 390.802521,281.360321 391.849426,281.340820 
M214.938141,269.878204 
	C215.426178,269.831787 215.914215,269.785339 216.402252,269.738922 
	C216.347687,269.493866 216.293121,269.248840 216.238556,269.003784 
	C215.726974,269.254181 215.215408,269.504547 214.938141,269.878204 
M162.947906,279.932617 
	C162.805099,279.730255 162.654785,279.532074 162.534988,279.316895 
	C162.526260,279.301239 162.738892,279.162292 162.848602,279.080688 
	C162.950836,279.310486 163.053070,279.540253 162.947906,279.932617 
M204.003647,270.465454 
	C204.003647,270.465454 204.019943,270.519989 204.003647,270.465454 
z"/>
<path fill="#010101" opacity="1.000000" stroke="none" 
	d="
M403.142548,263.996521 
	C401.678925,263.963318 400.668640,264.016174 399.682373,263.886505 
	C394.322418,263.181732 392.618134,259.144318 395.519226,254.613708 
	C405.438416,239.123032 419.826263,233.088913 437.869812,232.900635 
	C464.372803,232.624100 490.860443,230.948456 516.762939,224.887787 
	C526.401672,222.632523 535.681519,218.717789 544.979004,215.176407 
	C550.563477,213.049301 554.705017,214.508942 556.801758,220.203796 
	C559.880249,228.565201 557.160767,235.738846 548.508728,240.718735 
	C534.334961,248.876755 518.710815,253.087860 502.922729,256.666290 
	C475.983093,262.772217 448.600983,264.779633 421.057037,264.926575 
	C415.242157,264.957611 409.423767,264.325104 403.142548,263.996521 
M438.870483,234.481613 
	C438.870483,234.481613 439.224609,234.565659 439.224609,234.565659 
	C439.224609,234.565659 438.924683,234.386642 438.870483,234.481613 
z"/>
<path fill="#010101" opacity="1.000000" stroke="none" 
	d="
M272.571533,46.086788 
	C274.023621,48.220623 275.296021,50.074879 276.623291,51.889030 
	C279.539093,55.874458 282.430084,59.880157 285.446198,63.788841 
	C286.375397,64.992989 287.606384,66.001564 288.823792,66.937645 
	C290.936554,68.562187 294.422607,69.534393 292.836151,73.162109 
	C290.903839,77.580826 286.217010,79.036865 282.524231,76.834526 
	C279.532837,75.050461 276.639099,73.067963 273.527008,71.527016 
	C260.974426,65.311615 248.173752,65.606895 235.317703,70.525337 
	C229.339554,72.812447 224.955124,70.158569 224.131653,63.752602 
	C223.281525,57.139282 226.998596,52.764000 231.229507,48.592129 
	C233.765793,46.091225 236.039505,43.170151 238.964706,41.251034 
	C244.305710,37.746960 249.772598,34.016602 255.738388,32.074299 
	C258.385956,31.212334 262.966827,33.782558 265.596863,36.043400 
	C268.510010,38.547619 270.196228,42.479073 272.571533,46.086788 
M291.531403,71.482147 
	C291.531403,71.482147 291.486359,71.495461 291.531403,71.482147 
z"/>
<path fill="#010101" opacity="1.000000" stroke="none" 
	d="
M337.518280,123.957672 
	C336.586182,122.491447 335.822113,121.280891 335.138214,120.197380 
	C336.997192,118.647972 338.468933,117.120926 340.227173,116.075874 
	C341.182434,115.508080 342.922760,115.235626 343.796570,115.732002 
	C347.803162,118.007957 351.821167,120.360138 355.415283,123.213684 
	C356.677734,124.215996 357.591309,128.095215 357.213135,128.330719 
	C354.766327,129.854431 351.389954,132.238632 349.313080,131.509003 
	C345.102783,130.029877 341.524872,126.750534 337.518280,123.957672 
z"/>
<path fill="#010101" opacity="1.000000" stroke="none" 
	d="
M391.683990,154.006271 
	C385.563293,152.369888 379.685883,150.903885 373.989685,148.918198 
	C370.675995,147.763031 370.668121,145.852722 373.631866,143.612427 
	C377.450500,140.725922 380.984009,140.365860 384.823303,143.390839 
	C387.024475,145.125153 389.518311,146.506210 391.617554,148.346176 
	C393.396423,149.905365 394.993683,151.883484 391.683990,154.006271 
z"/>
<path fill="#000000" opacity="1.000000" stroke="none" 
	d="
M320.611267,104.718338 
	C316.860779,107.439415 313.989807,105.503113 311.444244,103.362930 
	C309.448547,101.685013 307.520294,99.678421 306.301636,97.418976 
	C305.584961,96.090179 305.643341,93.329330 306.559875,92.389656 
	C307.712006,91.208443 310.684540,90.238365 311.841187,90.921577 
	C315.207367,92.909927 318.169556,95.648720 321.077240,98.324623 
	C323.202362,100.280342 323.674957,102.551834 320.611267,104.718338 
z"/>
<path fill="#070707" opacity="1.000000" stroke="none" 
	d="
M137.343506,209.147339 
	C147.071701,209.272568 157.141098,209.524185 167.595764,209.917053 
	C160.597214,210.121796 153.213364,210.185287 145.184906,210.056030 
	C143.697784,209.907532 142.855255,209.951797 142.012741,209.996063 
	C140.570068,209.755295 139.127396,209.514526 137.343506,209.147339 
z"/>
<path fill="#070707" opacity="1.000000" stroke="none" 
	d="
M332.297424,251.193665 
	C338.439514,252.243332 344.878204,253.466537 351.661194,254.838013 
	C345.244476,255.338425 338.542053,255.375992 332.297424,251.193665 
z"/>
<path fill="#070707" opacity="1.000000" stroke="none" 
	d="
M115.339996,205.161591 
	C120.850365,205.816330 126.699692,206.625397 132.549011,207.434448 
	C132.462296,207.866089 132.375580,208.297745 132.149948,208.862823 
	C126.567001,207.769485 121.122971,206.542694 115.339996,205.161591 
z"/>
<path fill="#4D4E4D" opacity="1.000000" stroke="none" 
	d="
M174.970627,208.299026 
	C174.500946,208.178772 174.031281,208.058533 173.561600,207.938278 
	C173.562317,207.768280 173.563034,207.598282 173.563751,207.428284 
	C183.856491,207.428284 194.149231,207.428284 204.757996,207.718262 
	C204.608734,208.071503 204.143433,208.134781 202.903885,208.168625 
	C200.424637,208.130859 198.719650,208.122513 197.014648,208.114166 
	C195.621445,208.056061 194.228226,207.997955 191.991547,207.912231 
	C189.432953,207.924622 187.717865,207.964600 186.002762,208.004593 
	C184.930313,208.005371 183.857880,208.006149 181.948090,208.019943 
	C179.064041,208.121658 177.017334,208.210342 174.970627,208.299026 
z"/>
<path fill="#4D4E4D" opacity="1.000000" stroke="none" 
	d="
M137.451996,279.988678 
	C135.414017,279.837219 133.835648,279.636383 132.257294,279.435547 
	C132.247940,279.301819 132.238586,279.168091 132.229233,279.034363 
	C140.836044,279.034363 149.442871,279.034363 158.651764,279.140350 
	C159.253860,279.246338 159.532104,279.504059 159.532104,279.504059 
	C159.532104,279.504059 159.290619,279.786438 159.149353,279.907104 
	C157.280075,280.020233 155.552063,280.012665 153.003464,280.044800 
	C151.133026,280.110962 150.083145,280.137360 149.033279,280.163757 
	C145.326050,280.088959 141.618835,280.014130 137.451996,279.988678 
z"/>
<path fill="#4D4E4D" opacity="1.000000" stroke="none" 
	d="
M175.637863,228.922363 
	C184.075897,228.858978 192.127335,228.858978 200.178757,228.858978 
	C200.177948,229.123230 200.177139,229.387482 200.176331,229.651733 
	C191.046082,229.651733 181.915833,229.651733 172.454544,229.412735 
	C173.166092,229.111084 174.208664,229.048416 175.637863,228.922363 
z"/>
<path fill="#4D4E4D" opacity="1.000000" stroke="none" 
	d="
M440.504150,282.184998 
	C431.510284,282.342743 422.155579,282.486877 412.463684,282.404724 
	C413.480408,282.161591 414.834290,282.144714 417.056824,282.122498 
	C424.613037,282.072601 431.300629,282.028046 437.988190,281.983521 
	C438.706543,282.046112 439.424896,282.108704 440.504150,282.184998 
z"/>
<path fill="#070707" opacity="1.000000" stroke="none" 
	d="
M68.840263,183.238754 
	C71.414864,181.975632 71.414864,181.975632 71.986481,186.650650 
	C69.069496,187.542267 67.035118,187.242523 68.840263,183.238754 
z"/>
<path fill="#010101" opacity="1.000000" stroke="none" 
	d="
M437.598236,281.854187 
	C431.300629,282.028046 424.613037,282.072601 417.458801,282.062561 
	C423.730835,281.913605 430.469574,281.819244 437.598236,281.854187 
z"/>
<path fill="#070707" opacity="1.000000" stroke="none" 
	d="
M82.178970,191.309814 
	C85.205162,192.836014 88.420105,194.635010 91.825500,196.708344 
	C88.799881,195.182648 85.583809,193.382629 82.178970,191.309814 
z"/>
<path fill="#070707" opacity="1.000000" stroke="none" 
	d="
M270.181122,227.341064 
	C273.463623,228.581024 276.947937,230.087341 280.702148,231.805267 
	C277.442352,230.547058 273.912628,229.077225 270.181122,227.341064 
z"/>
<path fill="#070707" opacity="1.000000" stroke="none" 
	d="
M76.942177,187.998428 
	C77.462181,188.238678 77.982193,188.478912 78.751251,188.860809 
	C76.836617,191.998352 74.984276,191.357727 73.187546,188.233032 
	C73.882286,187.981018 74.709862,188.012131 76.011902,188.016388 
	C76.486374,187.989563 76.942177,187.998428 76.942177,187.998428 
z"/>
<path fill="#070707" opacity="1.000000" stroke="none" 
	d="
M250.243637,221.160095 
	C252.903671,221.785965 255.766113,222.622879 258.818298,223.725845 
	C256.154053,223.118317 253.300049,222.244736 250.243637,221.160095 
z"/>
<path fill="#070707" opacity="1.000000" stroke="none" 
	d="
M281.206177,232.294891 
	C283.522888,233.184387 286.053802,234.328568 288.793579,235.735138 
	C286.475067,234.848221 283.947693,233.698883 281.206177,232.294891 
z"/>
<path fill="#070707" opacity="1.000000" stroke="none" 
	d="
M174.971817,208.580078 
	C177.017334,208.210342 179.064041,208.121658 181.548615,208.069092 
	C179.918701,208.730850 177.850922,209.356476 175.383118,209.983429 
	C174.979721,209.610214 174.976364,209.235672 174.971817,208.580078 
z"/>
<path fill="#070707" opacity="1.000000" stroke="none" 
	d="
M232.046249,213.950119 
	C234.212173,214.800629 236.378082,215.651138 238.773376,216.749237 
	C236.890320,216.440384 234.777878,215.883942 232.342163,215.179138 
	C232.018875,215.030792 231.983917,214.539169 231.989990,214.268387 
	C231.996063,213.997604 232.046249,213.950119 232.046249,213.950119 
z"/>
<path fill="#070707" opacity="1.000000" stroke="none" 
	d="
M305.195190,241.343399 
	C307.445160,241.918365 309.910431,242.762924 312.667511,243.790070 
	C310.443024,243.186081 307.926788,242.399536 305.195190,241.343399 
z"/>
<path fill="#070707" opacity="1.000000" stroke="none" 
	d="
M197.242310,208.328400 
	C198.719650,208.122513 200.424637,208.130859 202.552185,208.198059 
	C201.139801,208.352158 199.304871,208.447388 197.242310,208.328400 
z"/>
<path fill="#070707" opacity="1.000000" stroke="none" 
	d="
M208.233810,209.328033 
	C209.496109,209.577255 211.006180,210.049957 212.755295,210.764221 
	C211.490082,210.521011 209.985840,210.036255 208.233810,209.328033 
z"/>
<path fill="#070707" opacity="1.000000" stroke="none" 
	d="
M220.162582,212.206543 
	C220.889282,212.221802 221.782516,212.416641 222.842728,212.791626 
	C222.116180,212.776550 221.222641,212.581345 220.162582,212.206543 
z"/>
<path fill="#010101" opacity="1.000000" stroke="none" 
	d="
M149.219879,280.347748 
	C150.083145,280.137360 151.133026,280.110962 152.576019,280.112366 
	C151.781601,280.270691 150.594040,280.401215 149.219879,280.347748 
z"/>
<path fill="#070707" opacity="1.000000" stroke="none" 
	d="
M297.263367,239.203568 
	C298.231812,239.521652 299.462128,240.022919 300.848083,240.760406 
	C299.844269,240.459991 298.684753,239.923370 297.263367,239.203568 
z"/>
<path fill="#070707" opacity="1.000000" stroke="none" 
	d="
M224.321152,213.140488 
	C225.208481,213.209656 226.416061,213.404938 227.813522,213.798187 
	C226.882736,213.752991 225.762070,213.509796 224.321152,213.140488 
z"/>
<path fill="#070707" opacity="1.000000" stroke="none" 
	d="
M214.325027,211.153885 
	C215.212845,211.217163 216.421494,211.404083 217.822281,211.786285 
	C216.891571,211.746887 215.768707,211.512207 214.325027,211.153885 
z"/>
<path fill="#070707" opacity="1.000000" stroke="none" 
	d="
M186.326889,208.124832 
	C187.717865,207.964600 189.432953,207.924622 191.573883,207.942657 
	C190.216812,208.082138 188.433914,208.163620 186.326889,208.124832 
z"/>
<path fill="#070707" opacity="1.000000" stroke="none" 
	d="
M246.190002,218.310730 
	C246.854126,218.576630 247.726120,219.058853 248.797699,219.771713 
	C248.130829,219.510590 247.264343,219.018814 246.190002,218.310730 
z"/>
<path fill="#070707" opacity="1.000000" stroke="none" 
	d="
M353.192017,255.292328 
	C353.851715,255.567230 354.720306,256.059143 355.795258,256.774658 
	C355.134705,256.501953 354.267822,256.005646 353.192017,255.292328 
z"/>
<path fill="#070707" opacity="1.000000" stroke="none" 
	d="
M111.250717,204.147903 
	C111.659180,204.221924 112.316025,204.426971 113.003738,204.804199 
	C112.522766,204.743896 112.010933,204.511414 111.250717,204.147903 
z"/>
<path fill="#070707" opacity="1.000000" stroke="none" 
	d="
M319.296509,247.172180 
	C319.892853,247.252701 320.776154,247.455780 321.816162,247.838989 
	C321.176361,247.777649 320.379944,247.536179 319.296509,247.172180 
z"/>
<path fill="#000000" opacity="1.000000" stroke="none" 
	d="
M142.390503,209.997040 
	C142.855255,209.951797 143.697784,209.907532 144.790512,209.936554 
	C144.283249,210.005890 143.525757,210.001953 142.390503,209.997040 
z"/>
<path fill="#000000" opacity="1.000000" stroke="none" 
	d="
M102.005341,295.500977 
	C101.992401,295.512604 102.018280,295.489349 102.005341,295.500977 
z"/>
<path fill="#4D4E4D" opacity="1.000000" stroke="none" 
	d="
M205.120331,208.164474 
	C205.501999,208.106934 206.067627,208.262314 206.746796,208.690277 
	C206.341644,208.767685 205.822983,208.572540 205.120331,208.164474 
z"/>
<path fill="#010101" opacity="1.000000" stroke="none" 
	d="
M541.498901,261.511841 
	C541.514832,261.509521 541.482910,261.514191 541.498901,261.511841 
z"/>
<path fill="#070707" opacity="1.000000" stroke="none" 
	d="
M96.175659,197.162079 
	C96.251335,197.195358 96.481529,197.405991 96.854691,197.805450 
	C96.789963,197.759888 96.567467,197.541611 96.175659,197.162079 
z"/>
<path fill="#000000" opacity="1.000000" stroke="none" 
	d="
M520.484619,207.504150 
	C520.488464,207.520645 520.480774,207.487656 520.484619,207.504150 
z"/>
<path fill="#000000" opacity="1.000000" stroke="none" 
	d="
M92.994400,128.995895 
	C92.988174,128.992233 93.021530,128.978470 93.014511,128.995514 
	C93.007484,129.012573 93.000626,128.999557 92.994400,128.995895 
z"/>
<path fill="#070707" opacity="1.000000" stroke="none" 
	d="
M294.990356,237.260925 
	C295.035522,237.259308 295.049866,237.505142 295.014282,237.875366 
	C294.997833,237.998001 294.992950,237.506622 294.990356,237.260925 
z"/>
<path fill="#010101" opacity="1.000000" stroke="none" 
	d="
M395.487366,151.495346 
	C395.490021,151.511765 395.484680,151.478928 395.487366,151.495346 
z"/>
<path fill="#000000" opacity="1.000000" stroke="none" 
	d="
M309.857025,311.139221 
	C309.817841,311.187347 309.648560,311.367920 309.354950,311.681335 
	C309.390533,311.628235 309.555939,311.447388 309.857025,311.139221 
z"/>
<path fill="#070707" opacity="1.000000" stroke="none" 
	d="
M293.246399,236.992065 
	C293.245483,236.943176 293.497620,236.932007 293.876282,236.977615 
	C293.833649,236.996155 293.665863,236.994629 293.246399,236.992065 
z"/>
<path fill="#070707" opacity="1.000000" stroke="none" 
	d="
M244.256805,218.011566 
	C244.255966,217.968903 244.498535,217.958054 244.862854,217.995178 
	C244.983383,218.011826 244.498993,218.012009 244.256805,218.011566 
z"/>
<path fill="#000000" opacity="1.000000" stroke="none" 
	d="
M416.996338,168.997070 
	C416.992126,168.993973 417.021851,168.977188 417.014130,168.993439 
	C417.006409,169.009689 417.000549,169.000153 416.996338,168.997070 
z"/>
<path fill="#070707" opacity="1.000000" stroke="none" 
	d="
M324.314026,247.977509 
	C324.308533,247.910217 324.539154,247.888550 324.891296,247.942749 
	C325.007996,247.965424 324.545258,247.969940 324.314026,247.977509 
z"/>
<path fill="#070707" opacity="1.000000" stroke="none" 
	d="
M261.247437,223.996613 
	C261.246521,223.948395 261.497345,223.937164 261.874023,223.981689 
	C261.831573,224.000092 261.664673,223.998810 261.247437,223.996613 
z"/>
<path fill="#070707" opacity="1.000000" stroke="none" 
	d="
M268.253845,227.007736 
	C268.252838,226.962128 268.498535,226.950500 268.867706,226.990631 
	C268.989807,227.008591 268.499176,227.007904 268.253845,227.007736 
z"/>
<path fill="#0B0C0C" opacity="1.000000" stroke="none" 
	d="
M430.091309,215.304962 
	C432.113220,215.165222 434.013367,215.165222 435.913544,215.165222 
	C435.902863,215.474716 435.892181,215.784195 435.881500,216.093689 
	C433.910858,215.877365 431.940186,215.661026 430.091309,215.304962 
z"/>
<path fill="#0B0C0C" opacity="1.000000" stroke="none" 
	d="
M122.008743,85.010681 
	C122.015755,85.018333 121.902946,85.266808 121.902946,85.266808 
	C121.902946,85.266808 121.914238,85.080231 121.950043,85.036667 
	C121.985840,84.993103 122.001740,85.003029 122.008743,85.010681 
z"/>
<path fill="#0B0C0C" opacity="1.000000" stroke="none" 
	d="
M159.018372,112.543587 
	C158.991409,112.541473 159.045349,112.545700 159.018372,112.543587 
z"/>
<path fill="#070707" opacity="1.000000" stroke="none" 
	d="
M169.994156,208.506516 
	C169.986618,208.480835 170.001694,208.532196 169.994156,208.506516 
z"/>
<path fill="#0B0C0C" opacity="1.000000" stroke="none" 
	d="
M76.829254,187.981277 
	C76.942177,187.998428 76.486374,187.989563 76.258827,187.984726 
	C76.259216,187.946960 76.487572,187.941696 76.829254,187.981277 
z"/>
<path fill="#070707" opacity="1.000000" stroke="none" 
	d="
M289.999268,236.001480 
	C289.998505,236.002960 290.031586,235.980469 290.014404,235.990921 
	C289.997192,236.001373 290.000000,236.000000 289.999268,236.001480 
z"/>
<path fill="#070707" opacity="1.000000" stroke="none" 
	d="
M231.972198,214.022583 
	C231.948349,214.047577 232.000946,213.932434 232.023590,213.941284 
	C232.046249,213.950119 231.996063,213.997604 231.972198,214.022583 
z"/>
<path fill="#070707" opacity="1.000000" stroke="none" 
	d="
M250.000671,219.997833 
	C250.001358,219.995667 250.038712,219.976822 250.021484,219.987701 
	C250.004242,219.998596 250.000000,220.000000 250.000671,219.997833 
z"/>
<path fill="#0B0C0C" opacity="1.000000" stroke="none" 
	d="
M391.684692,281.417419 
	C390.802521,281.360321 390.085052,281.226624 389.367615,281.092957 
	C389.505859,280.735962 389.644073,280.378998 389.782318,280.022003 
	C390.471344,280.461609 391.160400,280.901215 391.684692,281.417419 
z"/>
<path fill="#0B0C0C" opacity="1.000000" stroke="none" 
	d="
M214.820984,269.816589 
	C215.215408,269.504547 215.726974,269.254181 216.238556,269.003784 
	C216.293121,269.248840 216.347687,269.493866 216.402252,269.738922 
	C215.914215,269.785339 215.426178,269.831787 214.820984,269.816589 
z"/>
<path fill="#0B0C0C" opacity="1.000000" stroke="none" 
	d="
M227.000549,270.001343 
	C227.468048,269.795074 227.934998,269.587463 228.401947,269.379852 
	C228.445129,269.493561 228.488327,269.607269 228.531509,269.721008 
	C228.146744,269.807526 227.761978,269.894073 227.186707,269.988464 
	C226.996216,269.996338 227.000000,270.000000 227.000549,270.001343 
z"/>
<path fill="#4D4E4D" opacity="1.000000" stroke="none" 
	d="
M163.051605,279.851318 
	C163.053070,279.540253 162.950836,279.310486 162.848602,279.080688 
	C162.738892,279.162292 162.526260,279.301239 162.534988,279.316895 
	C162.654785,279.532074 162.805099,279.730255 163.051605,279.851318 
z"/>
<path fill="#0B0C0C" opacity="1.000000" stroke="none" 
	d="
M115.003380,224.004318 
	C114.934898,224.035950 114.863045,224.063431 114.891571,224.042267 
	C114.991959,223.993637 115.000000,224.000153 115.003380,224.004318 
z"/>
<path fill="#0B0C0C" opacity="1.000000" stroke="none" 
	d="
M204.011795,270.492737 
	C204.019943,270.519989 204.003647,270.465454 204.011795,270.492737 
z"/>
<path fill="#4D4E4D" opacity="1.000000" stroke="none" 
	d="
M159.118759,279.113281 
	C159.163239,278.794403 159.342804,278.608612 159.522400,278.422852 
	C159.602020,278.668335 159.681641,278.913818 159.646683,279.331665 
	C159.532104,279.504059 159.253860,279.246338 159.118759,279.113281 
z"/>
<path fill="#0B0C0C" opacity="1.000000" stroke="none" 
	d="
M438.897583,234.434128 
	C438.924683,234.386642 439.224609,234.565659 439.224609,234.565659 
	C439.224609,234.565659 438.870483,234.481613 438.897583,234.434128 
z"/>
<path fill="#0B0C0C" opacity="1.000000" stroke="none" 
	d="
M291.508881,71.488800 
	C291.486359,71.495461 291.531403,71.482147 291.508881,71.488800 
z"/>
</svg>